<?xml version="1.0" encoding="UTF-8"?><svg id="Layer_1" xmlns="http://www.w3.org/2000/svg" viewBox="0 0 116.36 43"><defs><style>.cls-1{fill:#fff;}</style></defs><path d="M61.27,38.85c-.98-.04-1.88-.17-2.69-.39-.06-.02-.11-.03-.17-.05l-.02.33-22.66.08v-.02c-.06,0-.24,0-.24,0-1.9,0-3.41-.32-4.61-.97-.34-.19-.66-.4-.94-.64h0c-.99.67-2.02,1.13-3.15,1.41-1.04.26-2.17.39-3.46.39h-.07c-1.29,0-2.45-.13-3.45-.4-1.09-.29-2.04-.75-2.83-1.38-.35.26-.72.49-1.11.69-.81.42-1.65.72-2.49.88-.73.14-1.54.21-2.41.21h-.05c-.54,0-1.05-.03-1.51-.09l-9.41.03.2-3.57c.17-2.98,1.54-5.54,2.75-7.8,1-1.87,1.95-3.65,1.95-5.17v-3.38h.52c.53-1.97,1.46-3.81,2.3-5.49,1.04-2.06,2.02-4,2.02-5.56v-3.38l10.15.04v2.4c.09,0,.18,0,.27,0,2.69,0,4.38.86,5.43,1.85.57-.37,1.16-.69,1.78-.94.87-.36,1.74-.61,2.59-.75.76-.12,1.59-.18,2.45-.18.93,0,1.75.06,2.47.17.62.1,1.22.26,1.8.48l.18-.59,19.49.05v.02s2.07,0,2.07,0c.45-.06.92-.09,1.42-.09.66,0,1.22.04,1.73.12.65.1,1.28.29,1.9.57.48.22.91.5,1.28.84,1.75-1.03,3.74-1.54,6.06-1.54,1.22,0,2.3.12,3.24.35,1.13.28,2.04.67,2.78,1.21.08.06.16.12.24.18.6-.4,1.22-.74,1.87-1.02l-.15-.29c.35-.29.66-.54.95-.79h0c2.38-2.06,4.92-3.6,7.75-4.69,2.89-1.12,6.02-1.75,9.57-1.93h0c.79-.04,1.57-.06,2.32-.06,1.63,0,3.17.1,4.58.29,1.78.25,3.33.64,4.74,1.19,1.14.45,2.18,1,3.09,1.65,1.44,1.03,2.58,2.32,3.37,3.82l.05.09c.76,1.52,1.15,3.1,1.15,4.71,0,1.18-.21,2.36-.63,3.5-.39,1.05-.95,2.08-1.68,3.05-.57.75-1.22,1.46-1.97,2.14l2.47-.04-3.51,6.92c-1.54,3.04-2.91,5.77-4.06,8.46l-1.21,2.82-2.93-.95-1.16,1.23-2.01-1.84c-.16-.04-.44-.1-.84-.16-.52-.07-1.14-.14-1.85-.18-.96-.06-2.06-.09-3.27-.09-3.23,0-7.16.21-11.15.6-.08.04-.16.09-.25.13-.25.13-.53.24-1.08.43-.46.16-.96.3-1.49.41-.54.12-1.22.22-2.08.3-.82.08-1.73.13-2.68.13h-.06c-.63,0-1.21-.03-1.76-.09l-.74.17c-.51.12-.96.23-1.29.34l-12.55,3.94,2.73-4.15Z"/><path class="cls-1" d="M8.28,22.4c1.14,0,2.29,0,3.43,0,0,1.2-.27,1.75-.73,2.95,1.5-.8,2.93-1.2,4.43-1.19,1.68,0,2.9.47,3.5,1.4.61.93.41,2.32-.51,4.16-.46.93-.93,1.74-1.38,2.44-.46.7-.88,1.27-1.3,1.7-.42.43-.88.78-1.4,1.05-.52.27-1.03.46-1.56.56-.53.1-1.12.15-1.79.15-1.7,0-3.04-.43-3.79-1.31-.08.41-.14.82-.16,1.22-1.14,0-2.29,0-3.43.01.26-4.61,4.71-8.55,4.71-13.16ZM9.06,29.15c-.26.52-.52,1.04-.76,1.55,0,.59.21.98.62,1.17.4.19,1.08.28,2.03.28,1.69,0,2.81-.78,3.58-2.34.13-.26.23-.5.3-.73.07-.22.12-.41.13-.56.02-.15,0-.29-.05-.41-.05-.12-.1-.22-.13-.29-.04-.07-.12-.13-.25-.19-.13-.05-.23-.09-.29-.11-.06-.02-.17-.04-.33-.05-.16-.01-.25-.02-.28-.02-.02,0-.11,0-.26,0-2.01,0-3.44.56-4.32,1.69ZM27.58,24.13c.72,0,1.36.05,1.92.13.55.09,1.08.26,1.57.51.49.25.85.59,1.07,1.01.21.42.28.97.18,1.66-.1.69-.4,1.51-.86,2.44-.52,1.06-1.07,1.97-1.62,2.72-.56.75-1.13,1.35-1.78,1.78-.65.44-1.34.75-2.1.94-.76.19-1.64.29-2.65.29-1.03,0-1.91-.09-2.64-.28-.73-.19-1.35-.51-1.81-.94-.47-.44-.73-1.03-.73-1.78,0-.75.26-1.66.79-2.73.45-.91.97-1.72,1.52-2.41.55-.69,1.09-1.25,1.62-1.66.53-.42,1.1-.75,1.73-1.01.63-.26,1.23-.44,1.83-.53.6-.1,1.25-.14,1.96-.14ZM24.05,32.43c.86,0,1.59-.19,2.2-.58.61-.38,1.12-1.04,1.58-1.96.25-.51.38-.94.38-1.3,0-.36-.1-.62-.31-.79-.21-.17-.43-.29-.68-.36-.24-.07-.52-.11-.84-.11-.23,0-.46.02-.71.07-.25.05-.52.13-.81.24-.29.12-.57.27-.83.45-.26.18-.52.42-.78.71-.26.29-.48.62-.66.99-.44.9-.53,1.56-.28,1.99.25.43.83.64,1.72.64ZM43.6,24.2c1.14,0,2.28,0,3.42,0-1.04,3.74-4.09,7.48-4.3,11.22-1.14,0-2.29,0-3.43.01.03-.57.13-1.15.28-1.72-1.15,1.14-2.39,1.71-4.04,1.72-1.32,0-2.36-.18-3.06-.56-.7-.38-1.14-1.08-1.15-2.11-.01-.74.2-1.65.65-2.74.41-1.09,1.33-2.74,2.16-4.94.11-.3.21-.6.3-.9,1.14,0,2.27,0,3.41,0-.34,1.24-.91,2.47-1.51,3.71,0,.01-.02.03-.03.06-.16.32-.28.57-.36.74-.08.17-.18.41-.3.72-.12.31-.19.55-.22.73-.03.17-.03.38-.01.6.02.23.09.4.21.51.12.12.29.22.52.31.23.09.52.13.86.13,1.2,0,2.53-.59,4.09-1.77.93-1.91,1.99-3.82,2.52-5.73ZM58.13,26.51c-.07.69-.37,1.58-.86,2.67-.44,1.08-1.48,2.86-1.96,5.32-.05.3-.08.59-.1.89-1.14,0-2.29,0-3.43.01.07-1.22.45-2.45.95-3.67.02-.04.04-.1.07-.17.1-.24.19-.43.25-.57.06-.13.14-.33.25-.59.11-.26.19-.46.23-.61.05-.15.1-.33.16-.56.06-.22.08-.4.08-.54,0-.13-.03-.28-.06-.43-.04-.15-.11-.28-.21-.37-.1-.09-.24-.16-.42-.22-.18-.06-.39-.09-.64-.09-.63,0-1.19.12-1.68.36-.49.24-1.01.57-1.56,1.01-1.08,2.15-2.14,4.31-2.26,6.46-1.14,0-2.29,0-3.43.01.21-3.74,3.26-7.48,4.3-11.21,1.14,0,2.28,0,3.42,0-.14.52-.33,1.03-.53,1.55.43-.3.75-.51.97-.65.22-.13.52-.3.88-.48.37-.19.74-.32,1.13-.39.38-.08.81-.11,1.28-.11.46,0,.86.03,1.2.08.34.05.68.16,1.02.31.34.16.6.4.77.73.17.33.23.75.17,1.25ZM66.06,24.23c.92,0,1.72.09,2.41.25.68.17,1.22.39,1.6.66.38.27.65.6.81.97.16.37.22.75.17,1.14-.05.39-.17.79-.38,1.19-1.26.22-2.51.44-3.77.67.02-.04.03-.09.04-.15,0-.06,0-.18-.04-.34-.03-.17-.11-.31-.22-.44-.11-.13-.32-.25-.63-.35-.3-.11-.69-.16-1.15-.16-.46,0-.88.05-1.27.14-.39.1-.71.21-.96.35-.25.14-.48.32-.7.53-.21.21-.38.4-.49.57-.12.17-.23.37-.34.6-.09.18-.16.34-.21.49-.05.15-.09.31-.12.5-.03.19,0,.35.06.49.07.14.17.27.3.39.14.12.34.21.62.28.28.06.61.09,1.01.09.35,0,.68-.03.99-.08.31-.05.57-.12.79-.2.22-.08.42-.18.6-.28.19-.1.34-.2.46-.31.12-.1.22-.19.3-.28.08-.08.14-.15.17-.2.02-.03.03-.05.05-.08,1.04.2,2.08.4,3.13.61-.19.43-.42.84-.68,1.23-.26.39-.6.77-1,1.14-.4.37-.85.69-1.36.96-.51.27-1.13.48-1.87.65-.75.16-1.58.24-2.51.25-.91,0-1.72-.09-2.4-.28-.69-.19-1.23-.45-1.62-.77-.39-.32-.67-.73-.81-1.21-.14-.49-.16-1-.05-1.54.11-.54.33-1.15.66-1.81.89-1.79,2.08-3.18,3.42-4.17,1.35-.99,2.96-1.48,5-1.48ZM13.12,7.97c1.14,0,2.28,0,3.42.01,0,1.2-.31,2.4-.77,3.6,1.5-.8,2.93-1.19,4.42-1.19,1.68,0,2.89.47,3.49,1.4.61.93.4,2.31-.53,4.15-.46.93-.93,1.74-1.38,2.44-.46.7-.88,1.26-1.3,1.7-.42.43-.87.78-1.39,1.05-.51.27-1.03.45-1.55.55-.53.1-1.12.15-1.79.15-1.7,0-3.03-.43-3.8-1.3-.08.41-.13.81-.16,1.22-1.14,0-2.28,0-3.43.01.23-4.6,4.74-9.2,4.74-13.8ZM13.98,15.42c-.26.52-.52,1.04-.76,1.55,0,.59.22.98.62,1.17.4.19,1.08.28,2.03.28,1.69,0,2.81-.78,3.58-2.34.13-.26.23-.5.3-.73.07-.22.12-.41.13-.56.02-.15,0-.29-.05-.41-.05-.12-.09-.22-.13-.29-.04-.07-.12-.13-.25-.19-.13-.05-.23-.09-.28-.11-.06-.02-.17-.04-.33-.05-.16-.01-.25-.02-.28-.02-.02,0-.11,0-.26,0-2.01,0-3.44.56-4.32,1.69ZM32.46,10.36c.72,0,1.36.05,1.92.13.55.09,1.08.26,1.57.51.49.25.85.59,1.06,1.01.21.42.28.97.17,1.66-.1.69-.4,1.51-.86,2.44-.53,1.06-1.07,1.97-1.62,2.72-.56.75-1.13,1.35-1.78,1.78-.65.44-1.33.75-2.09.94-.76.19-1.64.29-2.65.29-1.03,0-1.92-.09-2.65-.28-.73-.19-1.35-.51-1.82-.94-.47-.43-.73-1.03-.74-1.78,0-.75.26-1.66.79-2.73.45-.91.98-1.72,1.53-2.41.56-.69,1.09-1.25,1.63-1.66.53-.42,1.11-.75,1.73-1.01.63-.26,1.23-.44,1.84-.53.6-.1,1.25-.14,1.96-.14ZM28.91,18.65c.86,0,1.59-.19,2.2-.58.61-.38,1.12-1.04,1.58-1.96.25-.51.38-.94.38-1.3,0-.36-.1-.62-.3-.79-.21-.17-.43-.29-.68-.36-.24-.07-.52-.11-.84-.11-.23,0-.46.02-.71.07-.25.05-.52.13-.81.24-.29.12-.57.27-.83.45-.26.18-.52.42-.78.71-.26.29-.48.62-.66.99-.45.9-.53,1.56-.28,1.99.25.43.83.64,1.72.64ZM48.52,10.46c1.12,0,2.25,0,3.37,0-1.06,3.74-4.13,7.47-4.29,11.21-1.13,0-2.25,0-3.38.01.03-.57.12-1.15.26-1.72-1.14,1.14-2.36,1.71-4.01,1.72-1.32,0-2.36-.18-3.06-.56-.7-.38-1.15-1.08-1.16-2.1-.02-.74.2-1.65.64-2.74.41-1.09,1.34-2.73,2.17-4.94.11-.3.21-.6.3-.89,1.12,0,2.25,0,3.37,0-.35,1.24-.92,2.47-1.53,3.71,0,.01-.02.03-.03.06-.16.32-.28.57-.36.74-.08.17-.18.41-.3.72-.12.31-.19.55-.22.73-.03.17-.03.38-.01.6.02.23.09.4.21.51.12.12.3.22.53.31.23.09.52.13.86.13,1.21,0,2.53-.59,4.1-1.77.94-1.91,2-3.82,2.54-5.73ZM63,12.78c-.07.69-.37,1.58-.86,2.66-.44,1.08-1.48,2.85-1.94,5.31-.05.29-.08.59-.09.88-1.14,0-2.28,0-3.43.01.05-1.22.42-2.45.93-3.67.02-.04.04-.1.07-.17.1-.24.19-.43.25-.57.06-.13.14-.33.25-.59.11-.26.19-.46.24-.61.05-.15.1-.33.16-.56.06-.22.09-.4.08-.54,0-.13-.03-.28-.06-.43-.04-.15-.1-.28-.21-.37-.1-.09-.24-.16-.42-.22-.18-.06-.39-.09-.63-.09-.63,0-1.19.12-1.68.36-.49.24-1.01.57-1.56,1.01-1.08,2.15-2.14,4.31-2.24,6.46-1.15,0-2.3,0-3.46.01.16-3.73,3.22-7.45,4.29-11.18,1.15,0,2.3,0,3.45,0-.15.51-.33,1.03-.54,1.54.43-.29.76-.51.98-.64.22-.13.52-.29.88-.48.37-.19.74-.32,1.13-.39.38-.08.81-.11,1.28-.11.46,0,.86.03,1.2.08.34.05.68.16,1.02.31.34.15.6.4.76.73.16.33.22.75.17,1.25ZM79.16,24c1.01,0,1.86.12,2.53.35.68.23,1.21.6,1.56,1.12.35.52.45,1.22.28,2.11-.17.89-.65,1.96-1.31,3.21-2.91,0-5.82,0-8.73,0-.11.34,0,.62.35.84.34.22.95.32,1.81.32.75,0,1.53-.07,2.33-.19.8-.13,1.42-.25,1.86-.38.21-.06.43-.13.64-.19.04,1.02.15,2.05.45,3.07-.03.03-.09.06-.18.1-.09.04-.3.12-.63.24-.34.11-.71.22-1.12.31-.41.09-.98.17-1.7.24-.72.07-1.51.11-2.36.11-1,0-1.87-.08-2.59-.26-.72-.18-1.29-.42-1.7-.74-.4-.32-.69-.71-.82-1.2-.13-.48-.14-1-.01-1.54.12-.55.37-1.18.73-1.91.9-1.78,2.1-3.16,3.51-4.15,1.41-.99,3.05-1.48,5.1-1.47ZM77.83,27.5c-.54,0-1.02.05-1.45.15-.43.1-.77.23-1.03.39-.25.16-.46.31-.61.47-.15.15-.27.3-.35.46,1.75,0,3.51,0,5.26,0,.21-.42.19-.77-.06-1.04-.25-.28-.84-.42-1.76-.42ZM70.84,10.4c.92,0,1.72.09,2.41.25.68.17,1.22.39,1.6.66.38.27.65.6.81.97.16.37.22.75.17,1.14-.05.39-.17.79-.38,1.19-1.26.22-2.51.44-3.77.67.02-.04.03-.09.04-.15,0-.06,0-.18-.04-.34-.03-.17-.11-.31-.22-.44-.11-.13-.32-.25-.63-.35-.3-.11-.69-.16-1.15-.16-.46,0-.88.05-1.27.14-.39.1-.71.21-.96.35-.25.14-.48.32-.7.53-.21.21-.38.4-.49.57-.12.17-.23.37-.34.6-.09.18-.16.34-.21.49-.05.15-.09.31-.12.5-.03.19,0,.35.06.49.07.14.17.27.3.39.14.12.34.21.62.28.28.06.61.09,1.01.09.35,0,.68-.03.99-.08.31-.05.57-.12.79-.2.22-.08.42-.18.6-.28.19-.1.34-.2.46-.31.12-.1.22-.19.3-.28.08-.08.14-.15.17-.2.02-.03.03-.05.05-.08,1.04.2,2.08.4,3.13.61-.19.43-.42.84-.68,1.23-.26.39-.6.77-1,1.14-.4.37-.85.69-1.36.96-.51.27-1.13.48-1.87.65-.75.16-1.58.24-2.51.25-.91,0-1.72-.09-2.4-.28-.69-.19-1.23-.45-1.62-.77-.39-.32-.67-.73-.81-1.21-.14-.49-.16-1-.05-1.54.11-.54.33-1.15.66-1.81.89-1.79,2.08-3.18,3.42-4.17,1.35-.99,2.96-1.48,5-1.48ZM83.94,10.17c1.01,0,1.86.12,2.53.35.68.23,1.21.6,1.56,1.12.35.52.45,1.22.28,2.11-.17.89-.65,1.96-1.31,3.21-2.91,0-5.82,0-8.73,0-.11.34,0,.62.35.84.34.22.95.32,1.81.32.75,0,1.53-.07,2.33-.19.8-.13,1.42-.25,1.86-.38.21-.06.43-.13.64-.19.04,1.02.15,2.05.45,3.07-.03.03-.09.06-.18.1-.09.04-.3.12-.63.24-.34.11-.71.22-1.12.31-.41.09-.98.17-1.7.24-.72.07-1.51.11-2.36.11-1,0-1.87-.08-2.59-.26-.72-.18-1.29-.42-1.7-.74-.4-.32-.69-.71-.82-1.2-.13-.48-.14-1-.01-1.54.12-.55.37-1.18.73-1.91.9-1.78,2.1-3.16,3.51-4.15,1.41-.99,3.05-1.48,5.1-1.47ZM82.61,13.67c-.54,0-1.02.05-1.45.15-.43.1-.77.23-1.03.39-.25.16-.46.31-.61.47-.15.15-.27.3-.35.46,1.75,0,3.51,0,5.26,0,.21-.42.19-.77-.06-1.04-.25-.28-.84-.42-1.76-.42ZM69.18,32.97c-.2.3-.4.59-.59.89l-2.04,3.1,3.54-1.11c.42-.13.95-.27,1.55-.41-.55-.18-1.01-.41-1.36-.69-.52-.41-.87-.92-1.04-1.52-.02-.08-.04-.17-.06-.26M83.35,21.92c-.34.05-.74.1-1.2.15-.74.07-1.55.11-2.42.12h-.06c-.19,0-.38,0-.56,0-.32.37-.63.76-.93,1.18,0,0-.02.02-.05.05.32-.03.66-.04,1-.04h.03c.84,0,1.58.08,2.22.24.62-.66,1.27-1.21,1.96-1.68M100.15,13.76h0s0,0,0,0c0,0,0,0,0,0M95.9,10.04c-.9,0-1.92.09-2.99.29-1.4.26-2.88.68-4.23,1.35.32.63.39,1.41.2,2.33-.05.23-.11.48-.2.75.15-.11.3-.21.47-.32.93-.58,2.15-1.03,3.36-1.32,1.21-.29,2.44-.43,3.37-.43h.01c.14,0,.28,0,.41,0h.01s.01,0,.01,0c.81.02,1.57.14,2.22.33.65.19,1.2.45,1.6.74.04.03.09.06.12.09-.02.02-.05.05-.08.08-.22.21-.56.46-.95.66-.38.21-.81.38-1.21.49h0c-1.74.48-3.51.8-5.28,1.12-1.74.31-3.49.61-5.19,1.07,0,0,0,.02-.01.03h-.02s-.05.01-.08.02c-.03,0-.05.01-.08.02h0s0,0,0,0h-.02s-.05.02-.08.02c-.03,0-.05.01-.08.02h-.02s-.01,0-.01,0h0s-.02,0-.02,0c-.03,0-.05.01-.08.02-.03,0-.05.01-.08.02h-.02s0,0,0,0h0s0,0,0,0h0s0,0,0,0h0s0,0,0,0h-.02s0,0,0,0h0s0,0,0,0h0c-.05.01-.1.03-.15.04h-.02s0,0,0,0c-.02,0-.04.01-.07.02h0s0,0,0,0c-.27.08-.54.17-.81.26.06.98.2,1.82.44,2.59,0,.02,0,.04.01.05.23-.09.47-.17.71-.25,1.7-.55,3.57-.91,5.54-1.26,1.98-.35,4.06-.71,6.18-1.29h0c.82-.23,1.6-.59,2.3-1.03.35-.22.67-.47.97-.75.29-.28.55-.58.76-.95.09-.16.17-.33.22-.52.06-.19.09-.39.09-.6,0-.28-.06-.56-.16-.79-.07-.18-.17-.33-.26-.47-.15-.2-.31-.37-.47-.51-.16-.15-.33-.27-.5-.4h0c-.7-.5-1.52-.87-2.41-1.13-.89-.26-1.85-.4-2.87-.43-.17,0-.34-.01-.52-.01M101.49,34.17h0M101.35,33.77h.4-.4M101.37,33.65h0M85.6,24.23h0M85.65,24.22h0M99.38,3.37c-.74,0-1.46.02-2.15.06h0c-3.2.16-6.01.73-8.54,1.71-2.52.97-4.75,2.36-6.76,4.09h0c-.33.28-.68.56-1.03.85.9-.27,1.88-.4,2.95-.41h.09c.57,0,1.1.04,1.57.11,1.28-.88,2.64-1.61,4.12-2.18,2.23-.86,4.75-1.38,7.72-1.53h0c.65-.03,1.33-.05,2.01-.05.01,0,.02,0,.03,0,2.21,0,4.53.22,6.41.83.95.3,1.79.7,2.46,1.18.67.49,1.19,1.05,1.55,1.74.35.7.5,1.36.5,2,0,.47-.08.94-.26,1.43-.27.73-.75,1.49-1.51,2.27-.75.78-1.76,1.57-3.03,2.33h0c-2.12,1.26-4.13,1.94-6.32,2.55-2.17.6-4.52,1.12-7.16,2.08-1.58.46-3.19.92-4.43,1.27-.62.17-1.15.32-1.53.42-.19.05-.34.09-.44.11-.05.01-.08.02-.09.02h0s.11.56.11.56l.08.5v.07s.02,1.49.02,1.49c0,0,.01,0,.02,0h0c6.29-.1,12.58-.19,18.87-.29-.84,1.66-1.66,3.34-2.43,5.02-.35-.15-.73-.27-1.14-.37-.92-.23-2.01-.37-3.27-.47-1.25-.1-2.66-.14-4.16-.14-3.4,0-7.31.22-11.07.57h-.1s-.01.01-.01.01h-.03s-.05,0-.08.01c-.03,0-.05,0-.08,0h-.01s0,0,0,0c-.03,0-.05,0-.08,0h-.03s-.01,0-.01,0c-.03,0-.05,0-.08,0-.03,0-.05,0-.08,0h-.02s-.03,0-.03,0c-.03,0-.05,0-.08,0h-.02s0,0,0,0h-.03s-.05,0-.08.01c-.03,0-.05,0-.08,0h-.02s0,0,0,0h-.03s-.05,0-.08.01c0,0-.05,0-.08,0h-.05s0,0,0,0h0s-.02,0-.02,0c-.03,0-.05,0-.08,0h0s0,0,0,0c-.03,0-.05,0-.08,0-.03,0-.05,0-.08,0h-.02s-.01,0-.01,0h0s-.02.02-.02.02v.03s0,.03,0,.03h-.01c.05.97.17,1.78.38,2.54,4.08-.42,8.48-.69,12.17-.69h.01c1.26,0,2.44.03,3.49.1.79.05,1.5.12,2.11.21.46.07.87.14,1.2.23.25.06.47.13.63.19.12.05.22.09.28.13.05.03.08.05.09.06h0s.26-.27.26-.27l.14-.07,1.97.64c1.23-2.86,2.68-5.75,4.15-8.65l.99-1.95-2.19.03c-3.76.06-7.52.11-11.28.17,1.49-.43,2.94-.78,4.39-1.18,2.27-.63,4.57-1.39,6.97-2.82h0c1.91-1.14,3.41-2.4,4.45-3.78.52-.69.93-1.42,1.21-2.18.28-.76.42-1.55.42-2.34,0-1.09-.27-2.17-.79-3.19h0s0-.02,0-.02c-.57-1.1-1.4-1.99-2.36-2.67-.72-.52-1.51-.93-2.35-1.25-1.25-.49-2.61-.8-3.98-.99-1.37-.19-2.77-.26-4.12-.26"/></svg>