<?xml version="1.0" encoding="UTF-8"?>
<svg id="Layer_1" xmlns="http://www.w3.org/2000/svg" viewBox="0 0 1080 1080">
  <defs>
    <style>
      .cls-1 {
        fill: #fff;
      }
    </style>
  </defs>
  <ellipse cx="540.16" cy="540" rx="540" ry="540.5" transform="translate(-.4 1079.6) rotate(-89.94)"/>
  <g>
    <g>
      <path class="cls-1" d="M194.47,504.31c-48.62,2.75-97.26,6.03-145.91,9.76,2.58-73.25,16.48-146.44,40.33-218.96,47.06-6.18,93.49-11.53,139.43-15.97,24.47-2.36,44.19-2.73,59.41-1.3,15.22,1.43,26.61,4.79,34.26,9.96,7.66,5.18,12.44,12.13,14.35,20.83,1.91,8.7,2.16,19.26.76,31.66-1.37,9.77-4.49,17.98-9.48,24.62-4.99,6.64-10.53,11.68-16.68,15.12-6.14,3.44-11.42,5.28-15.84,5.53,4.32-.24,9.28.46,14.88,2.12,5.61,1.66,10.99,4.22,16.16,7.67,5.17,3.46,9.39,7.78,12.66,12.94,3.27,5.17,4.7,11.17,4.29,17.99-.54,8.96-1.89,17.21-4.08,24.75-2.19,7.54-6.12,14.3-11.86,20.27-5.73,5.98-14.03,11.17-24.92,15.6-10.88,4.44-25.07,8.06-42.56,10.95-17.49,2.89-39.23,5-65.22,6.47ZM202.73,375.77c12.67-1,22.56-2.43,29.71-4.36,7.14-1.93,12.24-4.43,15.33-7.53,3.08-3.09,4.94-6.89,5.62-11.39.69-4.6-.05-8.26-2.22-10.97-2.18-2.7-6.54-4.48-13.13-5.3-6.59-.82-16.08-.72-28.53.35-18.53,1.6-37.12,3.33-55.77,5.18-2.83,12.93-5.4,25.87-7.7,38.82,18.93-1.71,37.84-3.32,56.69-4.81ZM193.71,450.82c13.23-.87,23.99-1.92,32.27-3.18,8.29-1.27,14.43-3.37,18.46-6.35,4.04-2.97,6.29-7.54,6.84-13.71.55-6.16-.91-10.54-4.41-13.11-3.51-2.57-9.27-3.95-17.34-4.12-8.07-.17-18.64.19-31.75,1.14-19.07,1.38-38.18,2.87-57.33,4.47-1.8,12.98-3.32,25.97-4.56,38.96,19.29-1.46,38.56-2.82,57.83-4.09Z"/>
      <path class="cls-1" d="M540.09,499.39c-56.1.01-97.44-11.08-123.21-34.03-22.8-20.32-33.19-48.26-30.78-84.09,2.41-35.69,16.35-64.29,39.61-85.72,26.45-24.14,64.07-36.99,114.37-37.01,50.3.02,87.92,12.87,114.37,37.02,23.26,21.43,37.21,50.03,39.62,85.72,2.43,35.82-7.98,63.77-30.77,84.09-25.78,22.95-67.11,34.04-123.21,34.02ZM540.09,437.1c22.72,0,39.37-6.59,49.72-19.94,8.31-10.78,12.23-23.51,11.83-38.22-.4-14.71-4.98-27.49-13.47-38.31-10.59-13.63-26.52-20.56-48.07-20.56-21.56,0-37.53,6.93-48.22,20.56-8.5,10.82-13.09,23.6-13.48,38.31-.4,14.72,3.51,27.45,11.83,38.22,10.44,13.35,27.15,19.94,49.87,19.94Z"/>
      <path class="cls-1" d="M885.76,506.94c-55.41-3.08-94.63-16.21-118.11-40.43-19.81-20.29-30.55-48.95-33.63-85.83-3.24-38.26-7.62-76.4-13.02-114.33,28.93,1.71,57.99,3.81,87.24,6.3,7.8,37.57,14.1,75.33,18.74,113.2,1.93,15.82,5.8,28.51,11.95,38.02,8.79,13.67,23.11,21.07,43.2,22.39,20.27,1.34,33.64-4.2,39.6-16.66,4.19-8.98,5.22-21.08,2.81-36.36-5.91-37.31-14.02-74.52-24.12-111.55,29.66,3.27,59.57,6.92,89.72,10.9,12.18,36.77,21.86,73.7,28.78,110.74,6.44,34.48-.29,60.2-17.72,77.53-21.02,20.63-60.01,29.21-115.45,26.09Z"/>
    </g>
    <g>
      <path class="cls-1" d="M359.33,812.11c-29.68-1.74-59.49-3.9-89.48-6.46-44.53-53.7-90.17-107.57-132.81-160.93,5.92,50.43,16.1,100.73,30.07,150.7-25.63-2.9-51.44-6.07-77.43-9.49-23.96-72.68-37.97-146.04-40.6-219.46,32.66,2.5,65.33,4.81,97.99,6.89,38.81,52.75,81.62,106.14,124.43,159.5-7.39-50.93-11.95-102.11-13.5-153.35,27.44,1.29,54.87,2.41,82.29,3.34,1.75,76.77,8.33,153.41,19.05,229.25Z"/>
      <path class="cls-1" d="M541.81,821.45c-50.85,0-88.88-12.78-115.57-36.78-23.47-21.2-37.51-49.63-39.93-85.21-2.42-35.6,8.1-63.36,31.15-83.55,26.07-22.69,67.84-33.65,124.55-33.65,33.26-.01,60.77,3.54,82.4,10.88,21.63,7.34,38.29,17.42,49.87,30.34,11.57,12.93,18.86,27.82,21.81,44.71-33.12,1.11-66.21,1.87-99.27,2.28-9.56-17.73-27.95-26.48-54.82-26.47-22.96,0-39.86,6.62-50.42,19.98-8.42,10.61-12.38,23.21-11.99,37.83.4,14.62,5,27.32,13.58,38.07,10.78,13.55,26.93,20.43,48.72,20.42,25.48-.02,43.15-9.21,53.37-27.24,32.16-.46,64.36-1.32,96.63-2.57-5.14,17.22-14.06,32.62-26.36,46.15-12.31,13.54-28.66,24.43-48.84,32.48-20.21,8.05-45,12.29-74.88,12.31Z"/>
      <path class="cls-1" d="M990.78,785.91c-91.96,12.11-181.44,21.02-269.66,26.19,10.75-75.83,17.34-152.47,19.1-229.24,96.97-3.28,194.08-8.93,291.21-16.38-.66,18.16-2.01,36.32-4.03,54.46-61.55,5.47-122.88,10.09-184.04,13.69-.93,11.88-2.04,23.76-3.32,35.62,51.22-3.29,102.63-7.36,154.31-12.14-2.15,14.18-4.68,28.34-7.58,42.49-51.08,5.23-101.78,9.68-152.19,13.26-1.68,11.79-3.53,23.56-5.54,35.32,58.65-4.52,117.82-10.35,177.69-17.32-4.7,18.05-10.02,36.07-15.94,54.05Z"/>
    </g>
  </g>
</svg>