<svg width="139" height="43" viewBox="0 0 139 43" fill="none" xmlns="http://www.w3.org/2000/svg">
<path d="M5.95191 24.3784C7.39189 24.3784 8.84059 24.3784 10.2893 24.3784C10.2893 25.9148 9.94021 26.6123 9.36422 28.1575C12.3053 26.4534 17.4368 25.6676 19.3917 28.4312C20.8666 30.2148 18.3357 34.8591 16.9917 36.8899C15.9445 38.4793 15.1154 39.583 13.5794 40.4129C11.0398 41.7815 6.29227 41.7285 4.54684 39.6448C4.44211 40.1657 4.3723 40.6867 4.33739 41.2076C2.88868 41.2076 1.43998 41.2164 0 41.2253C0.331631 35.3271 5.95191 30.2854 5.95191 24.3873V24.3784ZM6.9468 33.0138C6.61517 33.676 6.29227 34.3382 5.98682 35.0004C6.06536 36.9253 7.47043 36.7575 9.33804 36.8546C11.7904 36.9341 13.4922 35.2388 14.2514 32.9343C14.4696 32.3339 14.4958 31.8129 14.1816 31.3185C13.7452 30.8417 13.0209 30.8593 12.41 30.8505C9.87039 30.8505 8.06388 31.5657 6.9468 33.0138ZM30.3704 26.5947C33.1195 26.5329 37.0205 27.2392 36.3573 30.8329C35.6853 33.9409 33.4948 37.87 30.9639 39.7242C28.2148 41.7109 21.9051 42.0376 19.3306 39.7242C16.9917 37.3226 19.671 33.1374 21.3379 30.877C23.5633 27.8661 26.7574 26.4975 30.3704 26.5858V26.5947ZM25.9109 37.2078C28.2672 37.1725 29.6112 36.1924 30.6933 33.9585C31.1472 32.9784 31.4788 31.9807 30.7893 31.292C30.0126 30.6386 28.9741 30.6033 27.9792 30.7799C26.8185 31.0094 25.7276 31.6187 24.916 32.5811C23.3451 34.4618 22.5771 37.3491 25.9109 37.2166V37.2078ZM50.6436 26.683C52.0836 26.683 53.5323 26.683 54.9723 26.6918C53.6545 31.4774 49.7971 36.263 49.5265 41.0487C48.0778 41.0487 46.6291 41.0575 45.1891 41.0663C45.2328 40.3335 45.3549 39.5918 45.5469 38.8589C44.0895 40.3158 42.5274 41.0487 40.4416 41.0575C37.614 40.9692 35.2751 40.7043 35.118 37.6405C35.2402 34.0468 37.7623 31.0536 39.0452 26.6565C40.4852 26.6565 41.9165 26.6565 43.3564 26.6653C42.859 28.5283 41.8204 30.6386 40.9477 32.431C40.6248 33.1727 40.1536 34.2057 40.2757 35.0534C40.3281 35.6803 40.651 35.8745 41.2008 36.1041C43.3477 36.6604 45.0495 35.7509 47.4582 34.0203C48.6363 31.5745 49.9716 29.1287 50.6436 26.6918V26.683ZM69.0055 29.632C68.5168 33.1815 65.7154 36.1483 65.3139 40.9869C63.8652 40.9869 62.4165 40.9957 60.9765 41.0045C61.0638 39.1591 61.7969 37.1107 62.591 35.3536C62.9489 34.4971 63.4725 33.3669 63.5074 32.4222C63.5248 31.3626 62.8179 31.0006 61.8231 31.0094C60.13 31.0094 59.0653 31.707 57.7213 32.7577C56.3599 35.5125 55.0159 38.2673 54.8588 41.0222C53.4101 41.0222 51.9614 41.031 50.5214 41.0398C50.792 36.2542 54.6406 31.4774 55.9584 26.6918C57.3984 26.6918 58.8471 26.6918 60.2871 26.7006C60.1038 27.3628 59.8769 28.0162 59.6151 28.6784C60.9503 27.7778 61.858 27.0891 63.3852 26.7271C65.5583 26.3651 69.4593 26.4181 69.0055 29.6232V29.632ZM79.0504 26.7094C82.454 26.6211 86.8874 27.9986 84.8802 32.0955C83.2918 32.378 81.7035 32.6606 80.1151 32.952C80.5602 30.462 76.0657 30.9212 74.7654 31.7246C73.8927 32.2368 73.2469 33.0049 72.828 33.9055C71.772 35.9363 72.8454 36.8105 74.9399 36.7663C76.5457 36.7752 78.2563 36.2719 79.1901 34.9474C80.5079 35.2035 81.8257 35.4684 83.1522 35.7244C81.1362 40.6778 75.4985 41.861 70.7247 40.7661C67.1379 39.8832 66.8586 36.8899 68.4208 33.932C70.7509 29.4643 73.8752 26.6741 79.0592 26.7094H79.0504ZM12.0784 5.90698C13.5183 5.90698 14.9583 5.91581 16.3983 5.92464C16.3983 7.46099 16.0056 8.99733 15.4296 10.5337C18.3619 8.8384 23.4935 8.04374 25.4396 10.7986C26.9058 12.5821 24.3574 17.2177 23.0222 19.2308C21.9837 20.8201 21.1546 21.915 19.6273 22.745C17.0965 24.1224 12.3576 24.0517 10.6035 21.9768C10.4987 22.4977 10.4289 23.0187 10.4115 23.5396C8.96277 23.5396 7.52279 23.5485 6.07409 23.5573C6.36208 17.668 12.0696 11.7875 12.0696 5.90698H12.0784ZM13.1693 15.4341C12.8376 16.0963 12.5147 16.7585 12.2093 17.4207C12.2965 19.3456 13.6929 19.1778 15.5605 19.2749C18.0128 19.3544 19.7059 17.6591 20.4651 15.3546C20.6833 14.7542 20.7095 14.2333 20.4041 13.7388C19.9677 13.262 19.2433 13.2797 18.6324 13.2708C16.0928 13.2708 14.2776 13.986 13.1605 15.4341H13.1693ZM36.5493 8.96201C39.2896 8.90021 43.1993 9.60657 42.5273 13.2002C41.8379 16.2994 39.6648 20.2374 37.1427 22.0916C34.3675 24.3078 24.6018 24.8199 24.5756 19.8224C24.5233 17.8887 26.2076 14.8425 27.5079 13.2444C29.7421 10.2423 32.945 8.86489 36.558 8.95318L36.5493 8.96201ZM32.0548 19.5752C34.4198 19.5398 35.7551 18.5598 36.8373 16.3259C37.2911 15.3458 37.6314 14.3569 36.942 13.6593C36.1653 13.006 35.1267 12.9795 34.1318 13.1472C32.9624 13.3768 31.8802 13.986 31.0686 14.9485C29.489 16.8292 28.721 19.7164 32.0548 19.584V19.5752ZM56.866 9.08563C58.2886 9.08563 59.7111 9.08563 61.1336 9.09446C59.7896 13.8713 55.9148 18.6569 55.7053 23.4337C54.2828 23.4337 52.8516 23.4425 51.429 23.4513C51.4639 22.7185 51.5774 21.9856 51.7607 21.2439C50.3207 22.7008 48.7673 23.4337 46.6902 23.4425C43.8626 23.3542 41.515 23.0893 41.3492 20.0343C41.4626 16.4407 43.9935 13.4563 45.2939 9.05914C46.7164 9.05914 48.1389 9.05914 49.5614 9.06797C49.0553 10.931 47.9993 13.0413 47.1266 14.8337C46.8036 15.5754 46.3237 16.6084 46.4458 17.4561C46.4982 18.083 46.8211 18.2772 47.3796 18.5068C49.5352 19.063 51.2458 18.1536 53.6545 16.423C54.8413 13.9772 56.1853 11.5402 56.8748 9.09446L56.866 9.08563ZM75.1668 12.0612C74.6694 15.593 71.8505 18.5598 71.5102 23.3895C70.0615 23.3895 68.6215 23.3984 67.1728 23.4072C67.2426 21.5618 67.9582 19.5133 68.7524 17.7563C69.1102 16.8998 69.6338 15.7696 69.6688 14.8248C69.6862 13.7741 68.988 13.4033 68.0019 13.4121C66.3088 13.4121 65.2528 14.1097 63.9088 15.1604C62.5387 17.9152 61.1947 20.67 61.0725 23.4248C59.6151 23.4248 58.1577 23.4337 56.7002 23.4425C56.9097 18.6745 60.7758 13.9066 62.1198 9.1386C63.5772 9.1386 65.0259 9.1386 66.4833 9.14743C66.3001 9.80965 66.0644 10.463 65.7939 11.1253C67.1292 10.2335 68.0455 9.54476 69.5728 9.18275C71.7284 8.82074 75.6381 8.87372 75.1581 12.07L75.1668 12.0612ZM95.6145 26.4181C102.012 26.4181 102.387 30.0029 99.4894 35.1152C95.8065 35.1152 92.1324 35.1152 88.4496 35.124C87.8997 37.8524 95.9898 36.1218 97.2902 35.6273C97.3338 36.9341 97.4821 38.2409 97.8574 39.5476C95.1345 40.9957 87.3848 41.5608 84.854 39.5565C82.9602 38.0025 83.7195 35.645 84.7231 33.6142C87.0445 29.1464 90.4568 26.3739 95.6145 26.4181ZM93.9302 30.8947C92.2459 30.8947 90.4219 31.3097 89.5754 32.7665C91.7921 32.7665 94.0087 32.7665 96.2254 32.7665C96.8451 31.2125 95.6494 30.9123 93.9302 30.8947ZM85.0896 9.01499C88.4932 8.92669 92.9266 10.3041 90.9193 14.401C89.331 14.6836 87.7427 14.9661 86.1543 15.2575C86.5994 12.7676 82.1049 13.2267 80.8046 14.0302C79.9319 14.5423 79.2861 15.3105 78.8672 16.2111C77.8112 18.2419 78.8846 19.116 80.9791 19.0719C82.5849 19.0807 84.2954 18.5774 85.2292 17.253C86.547 17.509 87.8648 17.7739 89.1914 18.03C87.1754 22.9834 81.5377 24.1665 76.7639 23.0717C73.1771 22.1887 72.8978 19.1955 74.46 16.2376C76.7901 11.7698 79.9144 8.97967 85.0983 9.01499H85.0896ZM101.654 8.72361C108.051 8.72361 108.426 12.3084 105.529 17.4207C101.846 17.4207 98.1716 17.4207 94.4887 17.4296C93.9389 20.1579 102.029 18.4273 103.329 17.9329C103.373 19.2396 103.521 20.5464 103.897 21.8532C101.174 23.3012 93.424 23.8663 90.8932 21.862C88.9994 20.308 89.7586 17.9505 90.7622 15.9197C93.0837 11.452 96.496 8.67947 101.654 8.72361ZM99.9694 13.209C98.285 13.209 96.4611 13.624 95.6145 15.0809C97.8312 15.0809 100.048 15.0809 102.265 15.0809C102.884 13.5269 101.689 13.2267 99.9694 13.209ZM82.9864 37.8965C82.4627 38.6735 80.2111 42.1524 79.6613 43C81.1449 42.5497 84.5747 41.3754 86.0932 41.0487C84.5136 40.5454 83.2744 39.5035 82.9864 37.8877M100.912 23.7604C99.2538 24.0164 97.36 24.14 95.5447 24.0871C95.1084 24.5727 94.7331 25.1201 94.3055 25.6587C95.6233 25.5439 97.2901 25.6146 98.4247 25.906C99.2014 25.0583 100.03 24.3608 100.903 23.7604M116.787 8.56468C113.819 8.59117 110.468 9.27105 107.667 10.6573C108.225 11.6727 108.112 13.2973 107.667 14.5864C111.402 11.9906 118.506 10.7368 122.32 13.4298C121.656 14.1185 120.461 14.7365 119.501 15.0014C115.146 16.2199 110.616 16.6437 106.253 17.8004C106.253 17.8092 106.244 17.8269 106.235 17.8357C106.078 17.871 105.913 17.9064 105.755 17.9505C105.668 17.9682 105.59 17.9947 105.502 18.0123C105.502 18.0123 105.494 18.0123 105.485 18.0123C105.485 18.0123 105.441 18.0211 105.433 18.03H105.441C105.337 18.0653 105.223 18.0918 105.118 18.1271C104.778 18.2331 104.429 18.339 104.089 18.4626C104.158 19.7517 104.35 20.8201 104.656 21.8444C110.241 19.478 120.208 19.9372 124.519 15.9815C126.448 14.1979 126.299 12.0259 124.117 10.569C122.04 9.0768 119.387 8.56468 116.787 8.55585M121.185 0.0176591C120.251 0.0176591 119.344 0.0441478 118.471 0.0882957C110.913 0.476797 104.612 2.70185 99.1316 7.51396C98.7127 7.87598 98.2763 8.23799 97.8312 8.6C99.5417 8.07023 101.837 7.94661 103.661 8.22033C108.714 4.64435 114.657 3.38172 121.185 3.39055C126.002 3.54066 131.789 3.79672 134.424 8.18501C136.597 12.6263 132.74 16.1669 128.987 18.4538C123.323 21.8267 118.27 22.0209 111.943 24.3696C108.958 25.2349 106.358 26.0207 103.731 26.7006C103.801 27.0361 103.932 27.716 103.975 28.0515L103.984 28.1398L104.001 30.0559C104.001 30.0559 104.019 30.0559 104.027 30.0559C111.987 29.9322 119.946 29.8086 127.896 29.685C126.84 31.8129 125.802 33.9585 124.824 36.1129C123.044 35.4066 121.447 35.2388 119.256 35.0446C112.781 34.6119 105.939 35.0181 99.0705 35.6979C98.8785 35.7156 98.7127 35.7333 98.5119 35.7509C98.381 35.7598 98.2589 35.7774 98.128 35.7951V35.8127H98.1105C98.1105 35.8304 98.1105 35.8657 98.1105 35.8834H98.093C98.1541 37.1195 98.3112 38.1614 98.573 39.1326C106.314 38.4175 113.758 37.7994 121.072 38.6382C122.119 38.8148 123.044 38.9207 123.864 39.4152L124.196 39.062L124.379 38.9737L126.875 39.7949C128.76 35.3448 131.151 30.6828 133.377 26.2238C127.713 26.3121 122.005 26.4004 116.341 26.4887C124.039 24.4579 134.442 21.9768 137.871 13.73C138.735 11.3901 138.535 8.87372 137.4 6.63101C134.302 0.900616 127.024 0.061807 121.194 0" fill="white"/>
</svg>
