<svg width="10" height="6" viewBox="0 0 10 6" fill="none" xmlns="http://www.w3.org/2000/svg">
<path d="M0.983518 5.08686L0.801385 4.5167L0.601039 5.08686H0L0.487206 5.42984L0.305073 6L0.801385 5.6481L1.28404 6L1.09735 5.42984L1.59366 5.08686H0.983518ZM3.54704 5.08686L3.36035 4.5167L3.16912 5.08686H2.56808L3.05528 5.42984L2.87315 6L3.36035 5.6481L3.85211 6L3.66998 5.42984L4.15719 5.08686H3.54704ZM6.11967 5.08686L5.92388 4.5167L5.74174 5.08686H5.12705L5.62791 5.42984L5.43667 6L5.92388 5.6481L6.42474 6L6.2335 5.42984L6.72071 5.08686H6.11967ZM8.67864 5.08686L8.49651 4.5167L8.30527 5.08686H7.69967L8.19143 5.42984L8.0093 6L8.49651 5.6481L8.98827 6L8.79247 5.42984L9.29334 5.08686H8.67864ZM3.36035 2.2539L3.16912 2.82405H2.56808L3.05528 3.17594L2.87315 3.73719L3.36035 3.38975L3.85211 3.73719L3.66998 3.17594L4.15719 2.82405H3.54704L3.36035 2.2539ZM0.801385 2.2539L0.601039 2.82405H0L0.487206 3.17594L0.305073 3.73719L0.801385 3.38975L1.28404 3.73719L1.09735 3.17594L1.59366 2.82405H0.983518L0.801385 2.2539ZM5.92388 2.2539L5.74174 2.82405H5.12705L5.62791 3.17594L5.43667 3.73719L5.92388 3.38975L6.42474 3.73719L6.2335 3.17594L6.72071 2.82405H6.11967L5.92388 2.2539ZM8.49651 2.2539L8.30527 2.82405H7.69967L8.19143 3.17594L8.0093 3.73719L8.49651 3.38975L8.98827 3.73719L8.79247 3.17594L9.29334 2.82405H8.67864L8.49651 2.2539ZM0.801385 0L0.601039 0.561247H0L0.487206 0.91314L0.305073 1.47884L0.801385 1.12695L1.28404 1.47884L1.09735 0.91314L1.59366 0.561247H0.983518L0.801385 0ZM3.36035 0L3.16912 0.561247H2.56808L3.05528 0.91314L2.87315 1.47884L3.36035 1.12695L3.85211 1.47884L3.66998 0.91314L4.15719 0.561247H3.54704L3.36035 0ZM5.92388 0L5.74174 0.561247H5.12705L5.62791 0.91314L5.43667 1.47884L5.92388 1.12695L6.42474 1.47884L6.2335 0.91314L6.72071 0.561247H6.11967L5.92388 0ZM8.49651 0L8.30527 0.561247H7.69967L8.19143 0.91314L8.0093 1.47884L8.49651 1.12695L8.98827 1.47884L8.79247 0.91314L9.29334 0.561247H8.67864L8.49651 0Z" fill="white"/>
</svg>
