<svg xmlns="http://www.w3.org/2000/svg" id="Layer_2" data-name="Layer 2" viewBox="0 0 418.01 418.01" width="418.01" height="418.01"><defs>
    <style>
      .cls-1 {
        fill: red;
      }

      .cls-2 {
        fill: #d3d3d3;
      }
    </style>
  </defs><g id="Layer_1-2" data-name="Layer 1">
    <circle class="cls-1" cx="209.01" cy="209.01" r="209.01"></circle>
    <g>
      <path d="M289.72,367.4l-45.29,27.83-17.83-11.27-46.98-28.57v-60.55s22.1-17.73,22.1-17.73l-13.48-7.48-7.13-26.03-9.25-34.63V73.3s70.65-39.61,70.65-39.61c7.43,3.07,14.49,6.66,21.76,10.44l42.05,21.81-.12,141.63-16.28,66.91-6.97,4.23,21.16,11.64v48.41s-14.38,28.64-14.38,28.64ZM287.5,69.34l-44.14-22.85-51.48,28.85,42.86,24.72,52.76-30.71ZM254.05,282.06l25.59-15.6,14.64-60.64.16-126.53-54.28,31.47-.03,127.48,13.93,43.82ZM280.81,358.17l11.28-22.74v-37.01s-13.04-7.67-13.04-7.67l-28.6,16.45-13.7,23.78.02,35.7,14.41,9.07,29.64-17.58Z"></path>
      <polygon class="cls-2" points="254.05 282.06 240.12 238.24 240.15 110.76 294.44 79.29 294.28 205.82 279.64 266.46 254.05 282.06"></polygon>
      <polygon class="cls-2" points="287.5 69.34 234.74 100.05 191.88 75.33 243.36 46.49 287.5 69.34"></polygon>
      <g>
        <path d="M232.43,326.05l-29.02,33.23-16.91-4.53-44.28-11.04-14.93-47.98,13.13-19.5-12.53-2.6-12.07-18.86-15.88-25.16-33.47-107.5,46.21-48.82c6.64.6,13.12,1.7,19.82,2.91l38.7,6.91,34.85,112.26,3.61,57.03-4.48,5.07,19.64,4,11.94,38.36-4.32,26.24ZM157.13,90.42l-40.62-7.22-33.67,35.56,40.06,9.01,34.23-37.35ZM183.11,267.23l16.43-18.68-3.36-51.66-31.09-100.3-35.25,38.33,31.42,101.02,21.85,31.29ZM223.09,320.93l3.32-20.8-9.13-29.33-12.23-2.86-18.61,20.09-4.99,22.23,8.82,28.28,13.65,3.64,19.15-21.24Z"></path>
        <polygon class="cls-2" points="183.11 267.23 161.26 235.94 129.84 134.92 165.08 96.6 196.18 196.89 199.54 248.55 183.11 267.23"></polygon>
        <polygon class="cls-2" points="157.13 90.42 122.9 127.77 82.84 118.76 116.51 83.2 157.13 90.42"></polygon>
        <polygon class="cls-2" points="223.09 320.93 203.94 342.17 190.29 338.54 181.46 310.25 186.45 288.03 205.06 267.94 217.28 270.8 226.41 300.13 223.09 320.93"></polygon>
      </g>
      <polygon class="cls-2" points="280.81 358.17 251.17 375.74 236.77 366.67 236.75 330.97 250.45 307.19 279.05 290.74 292.09 298.41 292.09 335.42 280.81 358.17"></polygon>
    </g>
  </g></svg>