<?xml version="1.0" encoding="UTF-8"?>
<svg id="Layer_2" data-name="Layer 2" xmlns="http://www.w3.org/2000/svg" viewBox="0 0 1088.6 1521.13">
  <defs>
    <style>
      .cls-1 {
        fill: #d3d3d3;
      }
    </style>
  </defs>
  <g id="Layer_1-2" data-name="Layer 1">
    <g>
      <path d="M1020.46,1406.77l-186.09,114.36-73.25-46.32-193.02-117.36.03-248.77,90.76-72.86-55.4-30.75-29.31-106.93-38.02-142.29.02-557.38L826.43,35.72c30.51,12.6,59.54,27.35,89.4,42.9l172.76,89.62-.49,581.88-66.88,274.88-28.64,17.39,86.95,47.82-.03,198.88-59.04,117.68ZM1011.33,182.21l-181.36-93.89-211.49,118.52,176.09,101.57,216.75-126.19ZM873.9,1056.15l105.15-64.1,60.14-249.13.64-519.83-223.01,129.28-.13,523.74,57.22,180.04ZM983.86,1368.84l46.33-93.44v-152.05s-53.57-31.52-53.57-31.52l-117.51,67.57-56.3,97.71.08,146.68,59.19,37.28,121.77-72.22Z"/>
      <polygon class="cls-1" points="873.9 1056.15 816.68 876.12 816.82 352.38 1039.83 223.1 1039.19 742.93 979.05 992.06 873.9 1056.15"/>
      <polygon class="cls-1" points="1011.33 182.21 794.58 308.39 618.48 206.83 829.97 88.31 1011.33 182.21"/>
      <g>
        <path d="M821.59,1251.4l-143.68,164.51-83.71-22.45-219.19-54.67-73.93-237.54,64.99-96.55-62.03-12.89-59.78-93.38-78.6-124.55L0,241.68,228.75,0c32.87,2.96,64.97,8.41,98.11,14.39l191.6,34.21,172.51,555.72,17.86,282.34-22.18,25.12,97.23,19.81,59.09,189.9-21.38,129.91ZM448.84,84.9l-201.07-35.74L81.07,225.19l198.33,44.63,169.44-184.92ZM577.42,960.19l81.34-92.46-16.64-255.74L488.21,115.48l-174.5,189.73,155.57,500.1,108.15,154.89ZM775.36,1226.05l16.46-102.99-45.2-145.18-60.52-14.17-92.11,99.45-24.71,110.02,43.68,140.02,67.6,18,94.8-105.15Z"/>
        <polygon class="cls-1" points="577.42 960.19 469.27 805.31 313.7 305.21 488.21 115.48 642.13 612 658.77 867.74 577.42 960.19"/>
        <polygon class="cls-1" points="448.84 84.9 279.39 269.82 81.07 225.19 247.76 49.17 448.84 84.9"/>
        <polygon class="cls-1" points="775.36 1226.05 680.57 1331.21 612.97 1313.21 569.29 1173.18 594 1063.16 686.1 963.71 746.62 977.88 791.82 1123.06 775.36 1226.05"/>
      </g>
      <polygon class="cls-1" points="983.86 1368.84 862.09 1441.05 802.9 1403.77 802.82 1257.1 859.12 1159.39 976.62 1091.82 1030.19 1123.34 1030.19 1275.4 983.86 1368.84"/>
    </g>
  </g>
</svg>