<?xml version="1.0" encoding="UTF-8"?>
<svg id="Layer_2" xmlns="http://www.w3.org/2000/svg" viewBox="0 0 1032.49 543.13">
  <defs>
    <style>
      .cls-1 {
        fill: #fff;
      }
    </style>
  </defs>
  <g id="Layer_1-2" data-name="Layer_1">
    <g>
      <g>
        <path class="cls-1" d="M349.62,144.48c-3.16-4.99-7.24-9.13-12.22-12.49-4.98-3.33-10.15-5.8-15.57-7.4-5.39-1.6-10.18-2.26-14.35-2.04,4.26-.22,9.37-2.01,15.29-5.33,5.92-3.29,11.25-8.16,16.07-14.59,4.79-6.4,7.8-14.34,9.12-23.75,1.35-11.99,1.13-22.15-.72-30.56-1.85-8.38-6.45-15.09-13.85-20.08-7.36-4.99-18.33-8.25-32.99-9.63-14.7-1.38-33.68-1-57.28,1.26-44.24,4.3-88.99,9.48-134.33,15.44-16.39,49.95-27.92,100.21-34.09,150.57,7.02,5.74,14.38,6.59,21.31,6.59,4.64,0,9.4-.5,14.44-1.04,3.2-.31,6.36-.66,9.53-.88.28,0,.5-.03.69-.03,3.48,0,5.3,2.32,5.83,4.3.41,1.6.53,4.64-3.48,6.93l-.41.22c-23.16,14.09-36.19,25.19-42.11,43.8,43.33-3.26,86.67-6.15,130.03-8.63,25.04-1.41,45.97-3.45,62.82-6.24,16.86-2.76,30.52-6.27,41.02-10.54,10.5-4.3,18.49-9.29,24-15.06,5.55-5.77,9.34-12.27,11.44-19.55,2.1-7.28,3.42-15.25,3.92-23.88.41-6.59-.97-12.39-4.1-17.38ZM265.27,163.09c-.53,5.96-2.69,10.39-6.58,13.24-3.89,2.89-9.81,4.93-17.8,6.12-7.99,1.22-18.36,2.23-31.08,3.07-18.58,1.22-37.13,2.54-55.74,3.95,1.19-12.55,2.66-25.07,4.42-37.59,18.42-1.54,36.85-2.98,55.24-4.3,12.63-.94,22.81-1.29,30.58-1.13,7.77.19,13.35,1.51,16.7,3.98,3.38,2.48,4.79,6.71,4.26,12.64ZM267.31,90.67c-.66,4.33-2.44,8-5.42,10.98-2.98,2.98-7.9,5.4-14.79,7.25-6.86,1.88-16.42,3.26-28.61,4.24-18.17,1.41-36.38,2.98-54.65,4.61,2.22-12.49,4.7-24.97,7.43-37.46,17.99-1.76,35.88-3.42,53.74-4.99,12-1.04,21.15-1.13,27.51-.35,6.33.82,10.56,2.51,12.66,5.11,2.07,2.64,2.79,6.15,2.13,10.6Z"/>
        <path class="cls-1" d="M691.94,118.44c-2.32-34.45-15.76-62.03-38.16-82.7C628.27,12.42,592.02.03,543.55,0c-48.44.03-84.69,12.42-110.2,35.7-22.4,20.68-35.85,48.29-38.16,82.74-2.32,34.54,7.68,61.53,29.67,81.14,24.82,22.12,64.67,32.85,118.72,32.82,54.05.03,93.87-10.7,118.72-32.82,21.96-19.61,31.99-46.56,29.64-81.14ZM591.49,153.05c-9.96,12.9-26.04,19.26-47.91,19.23-21.9.03-38.01-6.34-48.07-19.23-8.02-10.39-11.78-22.68-11.41-36.87.38-14.21,4.79-26.51,13-36.96,10.28-13.18,25.66-19.86,46.47-19.86,20.74.03,36.1,6.68,46.31,19.86,8.18,10.45,12.6,22.75,12.97,36.96.41,14.18-3.38,26.48-11.37,36.87Z"/>
        <path class="cls-1" d="M987.88,214.51c-20.27,19.89-57.84,28.18-111.23,25.16-53.39-2.98-91.18-15.62-113.8-39-19.11-19.58-29.45-47.22-32.43-82.83-3.1-36.9-7.33-73.7-12.53-110.31,27.89,1.66,55.87,3.67,84.07,6.09,7.52,36.24,13.57,72.7,18.05,109.22,1.85,15.28,5.58,27.52,11.53,36.68,8.46,13.21,22.25,20.33,41.61,21.62,19.55,1.29,32.43-4.05,38.16-16.06,4.04-8.66,5.04-20.36,2.69-35.11-5.67-35.99-13.5-71.88-23.22-107.62,24.85,2.76,49.88,5.77,75.11,9.04,9.15,21.9,9.27,33.01-6.27,52.15-1.94,2.42-2.35,5.55-1.07,8.25,1.22,2.64,3.82,4.27,6.77,4.27l1.63-.06,1.88-.75c8.99-3.64,15.48-6.27,21.18-6.27,1.22,0,2.44.13,3.79.44,4.29,16.75,8.02,33.51,11.15,50.29,6.2,33.29-.28,58.11-17.08,74.83Z"/>
        <path class="cls-1" d="M369.38,534.14c-28.59-1.68-57.32-3.76-86.22-6.23-42.9-51.81-86.89-103.8-127.97-155.27,5.71,48.66,15.52,97.19,28.97,145.41-24.7-2.8-49.57-5.86-74.61-9.15-23.09-70.13-36.59-140.91-39.13-211.75,31.47,2.41,62.95,4.64,94.42,6.64,37.39,50.9,78.64,102.41,119.9,153.9-7.12-49.14-11.52-98.52-13.01-147.96,26.44,1.25,52.87,2.33,79.29,3.22,1.68,74.07,8.02,148.02,18.35,221.19Z"/>
        <path class="cls-1" d="M678.44,455.82c1.16,11.33-4.54,22.68-21.37,43.64-1.72,2.2-1.91,5.3-.47,7.72.06.09.13.19.22.28-10.72,9.63-23.91,17.6-39.45,23.81-19.49,7.75-43.37,11.86-72.16,11.86-49.01.03-85.63-12.33-111.36-35.49-22.62-20.46-36.16-47.88-38.48-82.2-2.32-34.36,7.8-61.15,30.02-80.63,25.13-21.87,65.39-32.44,120.04-32.44,32.02-.03,58.53,3.42,79.37,10.48,20.84,7.09,36.91,16.82,48.07,29.27,11.15,12.49,18.17,26.86,21.02,43.14-31.93,1.07-63.83,1.82-95.66,2.2-9.21-17.1-26.95-25.54-52.83-25.54-22.15,0-38.41,6.4-48.6,19.3-8.12,10.23-11.91,22.4-11.53,36.49.38,14.12,4.83,26.36,13.07,36.74,10.4,13.08,25.94,19.7,46.97,19.7,24.53-.03,41.58-8.88,51.42-26.26,27.2-.41,54.43-1.1,81.72-2.07Z"/>
        <path class="cls-1" d="M835.79,362.88c-.91,11.48-1.97,22.94-3.2,34.39,49.35-3.17,98.89-7.12,148.68-11.73-2.07,13.68-4.51,27.36-7.3,41.01-49.22,5.05-98.07,9.35-146.64,12.8-1.63,11.36-3.42,22.72-5.36,34.07,56.52-4.36,113.55-9.98,171.24-16.72-4.51,17.44-9.65,34.83-15.35,52.18-88.61,11.67-174.84,20.27-259.85,25.26,1.85-13.11,3.57-26.26,5.17-39.41,5.73,2.6,12.28,6.56,20.24,12.11.88.66,2.91,2.16,5.83,1.57,2.01-.44,3.7-1.79,4.54-3.67.91-2.04.75-4.2-.47-6.43-1.35-2.48-2.79-4.89-4.23-7.34-10.62-17.95-19.05-32.13,8.62-62.59,2.16-2.38,2.54-5.87.94-8.69-1.57-2.79-4.64-4.24-7.68-3.58-.69.13-1.57.47-2.16.85-7.3,4.33-13.29,7.69-18.64,10.17,3.26-37.96,5.36-76.05,6.24-114.17,93.44-3.17,187-8.6,280.59-15.81-.63,17.54-1.91,35.05-3.89,52.55-59.28,5.3-118.41,9.76-177.32,13.21Z"/>
      </g>
      <g>
        <path class="cls-1" d="M1030.22,108.83c-31.25-34.03-39.97-30.16-64.67-20.17-.48.19-.55-.16-.24-.54,20.91-25.78,15.86-41.32,2.52-70.5-.35-.76.66-1.28,1.2-.61,29.93,36.39,45.43,22.91,62.95,15.83.99-.4.33.2-.13.79-19.28,24.84-21.85,38.42-1.35,75.06.09.16-.15.28-.28.14Z"/>
        <path class="cls-1" d="M71.13,295.54c-19.11-58.31-32.71-56.97-70.62-54.45-.73.05-.61-.45.02-.82,42.8-24.96,45.92-47.62,46.8-91.81.02-1.15,1.63-1.4,1.92-.28,15.96,60.86,44.2,49.76,71.09,47.99,1.52-.1.3.41-.65.99-40.12,24.42-51.82,41.2-48.13,98.32.02.25-.36.3-.44.06Z"/>
        <path class="cls-1" d="M662.08,503.53c31.99-39.92,25.91-50.3,9.79-79.8-.31-.57.07-.68.56-.33,33.1,24,49.54,16.99,79.63-.88.78-.47,1.56.73.92,1.43-34.91,38.44-16.69,56.54-5.26,77.46.64,1.18-.16.41-.91-.11-31.71-22.06-47.47-24.44-84.52,2.55-.16.12-.34-.16-.21-.33Z"/>
      </g>
    </g>
  </g>
</svg>