<?xml version="1.0" encoding="UTF-8"?>
<svg id="Layer_2" data-name="Layer 2" xmlns="http://www.w3.org/2000/svg" viewBox="0 0 2057.45 429.57">
  <defs>
    <style>
      .cls-1 {
        stroke: #000;
        stroke-miterlimit: 10;
        stroke-width: 1.55px;
        stroke-opacity: 0.25;
      }

      .cls-2 {
        fill: #d3d3d3;
      }

      .cls-3 {
        fill: #f90d0d;
      }

      .cls-bg {
        fill-opacity: 0.25;
      }
    </style>
  </defs>
  <g id="Layer_1-2" data-name="Layer 1">
    <g>
      <path class="cls-bg" d="M613.17.98c186.67-.03,373.35-.04,560.02-.03.8.16,1.6.32,2.4.48,8.63,1.69,16.79,4.65,24.33,8.83,0-3.42,0-6.83-.01-10.25,148.25,0,296.51,0,444.76,0,9.49,0,18.98,0,28.47,0,114.96.34,229.92.71,344.88,1.13,13.14.13,26.28.27,39.43.4-.42,47.13-.84,94.24-1.26,141.34,0,1.7-.02,3.4-.03,5.1-.39,42.84-.78,85.67-1.17,128.48,0,1.7.02,3.4.02,5.1-.45,49.18-.9,98.34-1.35,147.48-144.04-20.42-288.54-36.52-433.31-48.29-5.64-.46-11.28-.91-16.92-1.36-271.87-21.47-544.63-27.68-817.02-18.63-201.36,6.69-402.52,21.71-602.94,45.07C122.25,412.9,61.08,420.76,0,429.38v-43.12C1.13,257.74,2.26,129.37,3.4,1.14c50.17-.02,100.34-.04,150.52-.05,11.35,0,22.7,0,34.04-.01,51.33-.02,102.67-.03,154-.04"/>
      <path class="cls-bg" d="M387.4,1.03c60.51-.01,121.02-.03,181.53-.04"/>
      <path class="cls-2" d="M217.41,41.14c-.39,34.72-.78,69.45-1.17,104.19,0,3.86-3.12,7.14-6.93,7.22-26.55.89-53.09,1.84-79.63,2.83-3.72.17-6.82-2.92-6.73-6.89.34-35.42.68-70.82,1.02-106.22-30.35.39-60.7.79-91.05,1.22-1.05,113.05-2.09,226.22-3.13,339.49v.09c30.26-3.48,60.55-6.79,90.84-9.94,0-.31,0-.62,0-.92.4-40.85.81-81.69,1.21-122.52.09-3.89,3.2-7.35,7.01-7.62,26.49-1.65,52.99-3.23,79.5-4.72,3.81-.25,6.82,2.7,6.81,6.56-.46,39.43-.92,78.88-1.38,118.34,31.48-3.18,62.98-6.18,94.49-8.99,1.22-104.45,2.44-208.83,3.66-313.13-31.51.32-63.02.66-94.53,1.02Z"/>
      <path class="cls-2" d="M548.43,38.13c-46.97.32-93.93.68-140.89,1.09-32.28,102.23-64.55,206.66-96.78,313.81,35.21-3.13,70.43-6.03,105.67-8.7,3.62-16.29,7.24-32.53,10.87-48.74,31.81-1.75,63.63-3.35,95.45-4.79,3.19,15.22,6.38,30.41,9.56,45.58,35-2.15,70.01-4.07,105.03-5.76-29.67-96.23-59.31-193.58-88.91-292.49ZM444.4,231.87c10.38-35.34,20.76-70.44,31.15-105.32,9.51,34.55,19.02,68.9,28.54,103.08-19.9.7-39.79,1.45-59.68,2.24Z"/>
      <path class="cls-2" d="M915.82,63.37c-8.67-8.9-17.33-17.81-26-26.73-82.4.16-164.8.47-247.2.91-1.2,97.62-2.4,195.28-3.6,292.98,31.23-1.5,62.46-2.83,93.71-3.97.25-20.57.49-41.15.74-61.72.01-5.19,4.73-9.54,10.51-9.62,15.85-.3,31.71-.57,47.56-.8,14.4-.25,25.95,10.14,25.75,23.16-.17,15.44-.34,30.89-.51,46.33,32.05-.84,64.11-1.49,96.16-1.94.35-30.65.7-61.3,1.05-91.94-8.17-8.34-16.34-16.67-24.51-25.02,8.33-8.36,16.67-16.7,25-25.03.45-38.88.89-77.76,1.33-116.63ZM817.63,164.36c-.1,9.49-8.65,17.17-19.13,17.26-20.2.16-40.4.36-60.6.61.25-21.86.49-43.71.74-65.56.1-3,2.76-5.46,6.05-5.5,18.59-.06,37.19-.1,55.78-.12,9.77,0,17.67,7.24,17.57,16.08-.14,12.41-.27,24.83-.41,37.24Z"/>
      <path class="cls-2" d="M1170.95,36.65c-81.01-.16-162.02-.19-243.03-.07-1.07,95.07-2.15,190.16-3.22,285.25,88.76-1.14,177.53-.82,266.29.96,6.96-6.46,13.92-12.92,20.88-19.38.65-72.72,1.3-145.45,1.95-218.19-42.86-48.64,0-.05-42.86-48.58ZM1110.68,235.91c-.08,12.06-11.1,21.62-24.53,21.39-23.02-.29-46.04-.5-69.06-.63-6.14,0-.13,6.06-.04.48.42-48.64.84-97.28,1.26-145.92.08-5.82-6.49,0,0,0,24.08.18,48.16.39,72.24.64,11.82.11,21.33,8.85,21.24,19.47-.36,34.86-.73,69.72-1.1,104.58Z"/>
      <path class="cls-2" d="M1329.36,38.36c-33-.41-66-.8-99-1.17-.97,95.49-1.93,190.96-2.9,286.4,74.97,1.84,149.92,4.72,224.82,8.64-.06-27.52-.13-55.03-.19-82.55-41.51-1.63-83.04-3.02-124.57-4.17"/>
      <path class="cls-2" d="M1702.15,39.7c-1.55,64.96-3.11,129.84-4.66,194.64-23.32-66.04-46.66-130.94-69.99-194.88-16.25-.28-32.49-.55-48.74-.82-29.21-.48-58.42-.94-87.63-1.37,0,.25,0,.5,0,.75-.73,98.79-1.46,197.53-2.19,296.23,28.4,1.62,56.8,3.38,85.19,5.3.43-61.07.87-122.17,1.3-183.29,21.47,61.8,42.94,124.42,64.4,187.99,48.47,3.67,96.9,7.77,145.3,12.31.74-105.25,1.49-210.57,2.23-315.98-28.4-.3-56.81-.59-85.21-.86Z"/>
      <path class="cls-2" d="M2026.74,132.21c.26-29.52.51-59.05.77-88.58-3.16-.08-6.33-.15-9.5-.23-73.09-1.02-146.19-1.92-219.29-2.72-.78,105.73-1.56,211.37-2.34,316.92,76.17,7.25,152.26,15.58,228.23,25,.2-22.23.4-44.47.59-66.71-44.47-4.99-88.98-9.66-133.51-14,.15-18.01.3-36.02.45-54.03,44.52,3.64,89.02,7.55,133.48,11.73.23-25.32.45-50.64.68-75.98-44.54-3.09-89.09-5.98-133.66-8.68.12-16.44.24-32.88.37-49.33,44.59,2.06,89.16,4.26,133.72,6.61Z"/>
      <path class="cls-3" d="M1392.13,37.43c.07,31.39.14,62.77.21,94.15,7.07,26.47,14.15,53.03,21.22,79.67,10.43.32,20.87.65,31.3.99,6.95-26.32,13.9-52.72,20.85-79.21-.08-31.73-.15-63.46-.23-95.19-24.45-.15-48.9-.29-73.35-.41Z"/>
      <path class="cls-1" d="M1405.54,247.36c-3.02-.11-6.05-.21-9.07-.31-3.39,4.95-6.78,9.89-10.18,14.83.04,17.13.07,34.27.11,51.4,5.35,8.14,10.7,16.3,16.04,24.49,18.26.86,36.51,1.79,54.77,2.78M1405.72,329.33c-4.78-7.33-7.52-11.51-12.32-18.82-.03-15.1-.07-30.21-.1-45.31,4.77-6.93,7.49-10.89,12.23-17.84"/>
      <path class="cls-3" d="M1392.98,265.79c.03,15.1.07,30.2.1,45.3,4.79,7.31,7.53,11.49,12.32,18.83,16.06.75,32.11,1.54,48.16,2.38,4.76-6.92,7.48-10.87,12.24-17.81-.04-15.27-.07-30.53-.11-45.8-4.79-7.38-7.53-11.6-12.32-18.96-16.05-.63-32.09-1.23-48.14-1.79-4.76,6.95-7.48,10.91-12.24,17.84Z"/>
      <path class="cls-bg" d="M1404.86,247.93c-3.02-.11-6.04-.21-9.06-.31"/>
    </g>
  </g>
</svg>
