<svg width="909" height="289" viewBox="0 0 909 289" fill="none" xmlns="http://www.w3.org/2000/svg">
<g filter="url(#filter0_d_31_627)">
<path d="M42.7459 159.31C52.1199 159.31 61.5507 159.31 70.9815 159.31C70.9815 169.35 68.709 173.908 64.9594 184.006C84.1051 172.87 117.511 167.735 130.237 185.795C139.838 197.45 123.362 227.8 114.613 241.071C107.796 251.457 102.399 258.67 92.3997 264.094C75.8673 273.037 44.9615 272.691 33.5991 259.074C32.9174 262.478 32.4629 265.883 32.2356 269.287C22.8048 269.287 13.374 269.345 4 269.402C6.15886 230.859 42.7459 197.912 42.7459 159.368V159.31ZM49.2224 215.741C47.0636 220.069 44.9615 224.396 42.9731 228.724C43.4844 241.302 52.6312 240.206 64.789 240.841C80.7532 241.36 91.8315 230.282 96.7742 215.222C98.1945 211.298 98.3649 207.894 96.3197 204.663C93.4791 201.547 88.7637 201.662 84.7868 201.605C68.2545 201.605 56.4944 206.278 49.2224 215.741ZM201.706 173.793C219.602 173.389 244.997 178.005 240.679 201.489C236.305 221.8 222.045 247.476 205.569 259.593C187.674 272.576 146.598 274.711 129.839 259.593C114.613 243.899 132.055 216.549 142.906 201.778C157.393 182.102 178.186 173.158 201.706 173.735V173.793ZM172.675 243.149C188.014 242.918 196.764 236.513 203.808 221.915C206.762 215.51 208.921 208.99 204.433 204.49C199.377 200.22 192.616 199.989 186.14 201.143C178.584 202.643 171.482 206.624 166.199 212.914C155.972 225.204 150.973 244.072 172.675 243.206V243.149ZM333.681 174.37C343.055 174.37 352.486 174.37 361.86 174.428C353.281 205.701 328.17 236.975 326.409 268.248C316.978 268.248 307.547 268.306 298.173 268.364C298.457 263.575 299.253 258.728 300.502 253.939C291.015 263.459 280.845 268.248 267.267 268.306C248.86 267.729 233.635 265.998 232.612 245.976C233.407 222.492 249.826 202.932 258.177 174.197C267.551 174.197 276.869 174.197 286.243 174.255C283.004 186.429 276.244 200.22 270.562 211.933C268.46 216.78 265.393 223.531 266.188 229.07C266.529 233.167 268.631 234.436 272.21 235.936C286.186 239.571 297.264 233.628 312.944 222.319C320.614 206.336 329.306 190.353 333.681 174.428V174.37ZM453.213 193.642C450.032 216.837 431.795 236.225 429.182 267.844C419.751 267.844 410.32 267.902 400.946 267.96C401.514 255.9 406.287 242.514 411.457 231.032C413.786 225.435 417.194 218.049 417.422 211.875C417.535 204.951 412.934 202.585 406.457 202.643C395.435 202.643 388.504 207.201 379.755 214.068C370.893 232.07 362.144 250.073 361.121 268.075C351.69 268.075 342.259 268.133 332.885 268.191C334.647 236.917 359.701 205.701 368.279 174.428C377.653 174.428 387.084 174.428 396.458 174.485C395.265 178.813 393.788 183.083 392.084 187.41C400.776 181.525 406.684 177.024 416.626 174.659C430.773 172.293 456.168 172.639 453.213 193.584V193.642ZM518.604 174.543C540.761 173.966 569.621 182.967 556.555 209.74C546.215 211.587 535.875 213.433 525.535 215.337C528.433 199.066 499.174 202.066 490.709 207.317C485.028 210.663 480.824 215.683 478.097 221.569C471.223 234.84 478.211 240.552 491.846 240.264C502.299 240.321 513.434 237.032 519.513 228.377C528.092 230.051 536.67 231.782 545.306 233.455C532.182 265.825 495.482 273.557 464.405 266.402C441.056 260.632 439.238 241.071 449.407 221.742C464.576 192.546 484.915 174.312 518.661 174.543H518.604ZM82.628 38.6014C92.002 38.6014 101.376 38.6591 110.75 38.7168C110.75 48.7567 108.193 58.7965 104.444 68.8363C123.533 57.7579 156.938 52.5649 169.607 70.5674C179.152 82.2228 162.563 112.515 153.87 125.671C147.11 136.057 141.713 143.212 131.77 148.636C115.295 157.637 84.446 157.175 73.0267 143.616C72.345 147.02 71.8905 150.424 71.7769 153.829C62.346 153.829 52.972 153.886 43.5412 153.944C45.416 115.458 82.5712 77.0298 82.5712 38.6014H82.628ZM89.7295 100.86C87.5706 105.187 85.4686 109.515 83.4801 113.843C84.0483 126.421 93.1382 125.325 105.296 125.96C121.26 126.479 132.282 115.4 137.224 100.341C138.645 96.4171 138.815 93.0127 136.827 89.7815C133.986 86.6657 129.271 86.7811 125.294 86.7234C108.762 86.7234 96.9446 91.3971 89.6727 100.86H89.7295ZM241.929 58.5657C259.768 58.1618 285.22 62.7778 280.845 86.2618C276.357 106.515 262.211 132.249 245.792 144.366C227.726 158.849 164.153 162.195 163.983 129.537C163.642 116.901 174.607 96.994 183.072 86.5503C197.616 66.9322 218.466 57.931 241.986 58.508L241.929 58.5657ZM212.671 127.921C228.067 127.691 236.759 121.286 243.804 106.688C246.758 100.283 248.974 93.8205 244.486 89.2622C239.429 84.9924 232.669 84.8193 226.192 85.9156C218.579 87.4158 211.535 91.3971 206.251 97.6864C195.968 109.977 190.969 128.845 212.671 127.979V127.921ZM374.188 59.3735C383.448 59.3735 392.709 59.3735 401.969 59.4312C393.22 90.647 367.995 121.921 366.632 153.136C357.371 153.136 348.054 153.194 338.794 153.252C339.021 148.463 339.76 143.674 340.953 138.827C331.579 148.347 321.466 153.136 307.945 153.194C289.538 152.617 274.255 150.886 273.176 130.922C273.914 107.438 290.39 87.9351 298.855 59.2004C308.115 59.2004 317.376 59.2004 326.636 59.2581C323.341 71.4329 316.467 85.2232 310.785 96.9363C308.683 101.783 305.559 108.534 306.354 114.073C306.695 118.17 308.797 119.439 312.433 120.94C326.466 124.575 337.601 118.632 353.281 107.322C361.007 91.3394 369.756 75.4142 374.245 59.4312L374.188 59.3735ZM493.323 78.8185C490.084 101.899 471.734 121.286 469.518 152.848C460.088 152.848 450.714 152.906 441.283 152.963C441.737 140.904 446.396 127.517 451.566 116.035C453.895 110.438 457.304 103.053 457.531 96.8786C457.645 90.0123 453.1 87.5889 446.68 87.6466C435.658 87.6466 428.784 92.2049 420.035 99.0713C411.116 117.074 402.367 135.076 401.571 153.079C392.084 153.079 382.596 153.136 373.108 153.194C374.472 122.036 399.64 90.8778 408.389 59.7197C417.876 59.7197 427.307 59.7197 436.795 59.7774C435.602 64.1049 434.068 68.3747 432.307 72.7023C440.999 66.8745 446.964 62.3739 456.906 60.0082C470.939 57.6425 496.391 57.9887 493.266 78.8762L493.323 78.8185ZM626.434 172.639C668.077 172.639 670.52 196.065 651.658 229.474C627.683 229.474 603.766 229.474 579.791 229.531C576.212 247.361 628.877 236.052 637.341 232.82C637.626 241.36 638.591 249.9 641.034 258.439C623.309 267.902 572.86 271.595 556.384 258.497C544.056 248.342 548.999 232.936 555.532 219.665C570.644 190.468 592.858 172.351 626.434 172.639ZM615.469 201.893C604.504 201.893 592.63 204.605 587.12 214.125C601.55 214.125 615.98 214.125 630.41 214.125C634.444 203.97 626.661 202.008 615.469 201.893ZM557.918 58.9119C580.075 58.3349 608.935 67.3362 595.869 94.109C585.529 95.9555 575.189 97.8018 564.849 99.706C567.747 83.4345 538.488 86.4349 530.023 91.6856C524.342 95.0322 520.138 100.052 517.411 105.938C510.537 119.209 517.525 124.921 531.16 124.632C541.613 124.69 552.748 121.401 558.827 112.746C567.406 114.42 575.984 116.151 584.62 117.824C571.496 150.194 534.796 157.925 503.719 150.771C480.37 145.001 478.552 125.44 488.721 106.111C503.89 76.9144 524.229 58.6811 557.975 58.9119H557.918ZM665.748 57.0078C707.391 57.0078 709.834 80.4341 690.972 113.843C666.997 113.843 643.079 113.842 619.105 113.9C615.526 131.73 668.19 120.42 676.655 117.189C676.94 125.729 677.905 134.268 680.348 142.808C662.623 152.271 612.174 155.964 595.698 142.866C583.37 132.71 588.313 117.305 594.846 104.033C609.958 74.8372 632.172 56.7193 665.748 57.0078ZM654.783 86.3195C643.818 86.3195 631.944 89.0314 626.434 98.5519C640.864 98.5519 655.294 98.5519 669.724 98.5519C673.758 88.3967 665.975 86.4349 654.783 86.3195ZM544.226 247.649C540.818 252.727 526.16 275.461 522.581 281C532.239 278.057 554.566 270.383 564.452 268.248C554.169 264.959 546.101 258.151 544.226 247.592M660.918 155.271C650.124 156.945 637.796 157.752 625.979 157.406C623.138 160.58 620.695 164.157 617.912 167.677C626.49 166.927 637.341 167.388 644.727 169.292C649.783 163.753 655.181 159.195 660.862 155.271M764.26 55.9692C744.944 56.1423 723.128 60.5852 704.891 69.6442C708.527 76.2797 707.789 86.8965 704.891 95.3207C729.207 78.3569 775.452 70.1635 800.279 87.762C795.961 92.2626 788.178 96.3016 781.928 98.0326C753.579 105.995 724.094 108.765 695.688 116.324C695.688 116.381 695.631 116.497 695.574 116.554C694.551 116.785 693.472 117.016 692.449 117.305C691.881 117.42 691.37 117.593 690.802 117.708C690.802 117.708 690.745 117.708 690.688 117.708C690.688 117.708 690.404 117.766 690.347 117.824H690.404C689.722 118.055 688.984 118.228 688.302 118.459C686.086 119.151 683.814 119.843 681.598 120.651C682.053 129.075 683.302 136.057 685.291 142.75C721.651 127.287 786.53 130.287 814.595 104.437C827.151 92.7819 826.185 78.5877 811.982 69.0671C798.461 59.3158 781.19 55.9692 764.26 55.9115M792.893 0.1154C786.814 0.1154 780.906 0.288501 775.224 0.577002C726.025 3.11581 685.007 17.6563 649.329 49.1029C646.602 51.4686 643.761 53.8343 640.864 56.2C651.999 52.738 666.941 51.9302 678.814 53.7189C711.709 30.3503 750.398 22.0992 792.893 22.1569C824.253 23.1378 861.92 24.8111 879.077 53.4881C893.223 82.5113 868.112 105.649 843.683 120.593C806.812 142.635 773.918 143.904 732.729 159.253C713.299 164.907 696.369 170.042 679.269 174.485C679.723 176.678 680.576 181.121 680.86 183.314L680.916 183.891L681.03 196.411C681.03 196.411 681.144 196.411 681.2 196.411C733.013 195.604 784.826 194.796 836.582 193.988C829.707 207.894 822.947 221.915 816.584 235.994C804.994 231.378 794.597 230.282 780.338 229.012C738.183 226.185 693.642 228.839 648.931 233.282C647.681 233.397 646.602 233.513 645.295 233.628C644.443 233.686 643.648 233.801 642.795 233.917V234.032H642.682C642.682 234.147 642.682 234.378 642.682 234.494H642.568C642.966 242.572 643.988 249.38 645.693 255.727C696.085 251.054 744.546 247.015 792.154 252.496C798.972 253.65 804.994 254.342 810.334 257.574L812.493 255.266L813.686 254.689L829.935 260.055C842.206 230.974 857.772 200.508 872.26 171.37C835.388 171.947 798.233 172.524 761.362 173.101C811.471 159.83 879.191 143.616 901.518 89.7238C907.142 74.4333 905.836 57.9887 898.45 43.3329C878.282 5.88542 830.9 0.403901 792.95 0" fill="#101010"/>
</g>
<defs>
<filter id="filter0_d_31_627" x="0" y="0" width="909" height="289" filterUnits="userSpaceOnUse" color-interpolation-filters="sRGB">
<feFlood flood-opacity="0" result="BackgroundImageFix"/>
<feColorMatrix in="SourceAlpha" type="matrix" values="0 0 0 0 0 0 0 0 0 0 0 0 0 0 0 0 0 0 127 0" result="hardAlpha"/>
<feOffset dy="4"/>
<feGaussianBlur stdDeviation="2"/>
<feComposite in2="hardAlpha" operator="out"/>
<feColorMatrix type="matrix" values="0 0 0 0 0 0 0 0 0 0 0 0 0 0 0 0 0 0 0.25 0"/>
<feBlend mode="normal" in2="BackgroundImageFix" result="effect1_dropShadow_31_627"/>
<feBlend mode="normal" in="SourceGraphic" in2="effect1_dropShadow_31_627" result="shape"/>
</filter>
</defs>
</svg>
